{
  "accessors": [
    {
      "bufferView": 3,
      "componentType": 5126,
      "count": 2465,
      "max": [
        1.8815785646438599,
        1.5137882232666016,
        0.2589375972747803
      ],
      "min": [
        -2.350551128387451,
        -1.5174777507781982,
        -0.25893738865852356
      ],
      "type": "VEC3"
    },
    {
      "bufferView": 3,
      "byteOffset": 29580,
      "componentType": 5126,
      "count": 2465,
      "max": [
        1.0,
        1.0,
        1.0
      ],
      "min": [
        -1.0,
        -1.0,
        -1.0
      ],
      "type": "VEC3"
    },
    {
      "bufferView": 2,
      "componentType": 5126,
      "count": 2465,
      "max": [
        0.875,
        1.0
      ],
      "min": [
        0.0,
        0.0
      ],
      "type": "VEC2"
    },
    {
      "bufferView": 1,
      "componentType": 5125,
      "count": 2766,
      "type": "SCALAR"
    },
    {
      "bufferView": 3,
      "byteOffset": 59160,
      "componentType": 5126,
      "count": 2575,
      "max": [
        2.34716796875,
        1.5190160274505615,
        0.27321857213974
      ],
      "min": [
        -2.2087197303771973,
        0.726925253868103,
        -0.27322080731391907
      ],
      "type": "VEC3"
    },
    {
      "bufferView": 3,
      "byteOffset": 90060,
      "componentType": 5126,
      "count": 2575,
      "max": [
        1.0,
        1.0,
        1.0
      ],
      "min": [
        -1.0,
        -1.0,
        -1.0
      ],
      "type": "VEC3"
    },
    {
      "bufferView": 2,
      "byteOffset": 19720,
      "componentType": 5126,
      "count": 2575,
      "max": [
        0.875,
        1.0
      ],
      "min": [
        0.0,
        0.0
      ],
      "type": "VEC2"
    },
    {
      "bufferView": 1,
      "byteOffset": 11064,
      "componentType": 5125,
      "count": 2901,
      "type": "SCALAR"
    },
    {
      "bufferView": 3,
      "byteOffset": 120960,
      "componentType": 5126,
      "count": 423,
      "max": [
        -0.9247472882270813,
        0.8033715486526489,
        0.28891047835350037
      ],
      "min": [
        -2.3576083183288574,
        -1.6303966045379639,
        -0.288936048746109
      ],
      "type": "VEC3"
    },
    {
      "bufferView": 3,
      "byteOffset": 126036,
      "componentType": 5126,
      "count": 423,
      "max": [
        1.0,
        1.0,
        1.0
      ],
      "min": [
        -1.0,
        -1.0,
        -1.0
      ],
      "type": "VEC3"
    },
    {
      "bufferView": 2,
      "byteOffset": 40320,
      "componentType": 5126,
      "count": 423,
      "max": [
        0.875,
        1.0
      ],
      "min": [
        0.125,
        0.0
      ],
      "type": "VEC2"
    },
    {
      "bufferView": 1,
      "byteOffset": 22668,
      "componentType": 5125,
      "count": 534,
      "type": "SCALAR"
    },
    {
      "bufferView": 3,
      "byteOffset": 131112,
      "componentType": 5126,
      "count": 395,
      "max": [
        2.343851089477539,
        1.6816623210906982,
        0.19731265306472778
      ],
      "min": [
        -1.9538803100585938,
        1.4846150875091553,
        -0.19731266796588898
      ],
      "type": "VEC3"
    },
    {
      "bufferView": 3,
      "byteOffset": 135852,
      "componentType": 5126,
      "count": 395,
      "max": [
        1.0,
        1.0,
        1.0
      ],
      "min": [
        -1.0,
        -1.0,
        -1.0
      ],
      "type": "VEC3"
    },
    {
      "bufferView": 2,
      "byteOffset": 43704,
      "componentType": 5126,
      "count": 395,
      "max": [
        0.875,
        1.0
      ],
      "min": [
        0.125,
        0.0
      ],
      "type": "VEC2"
    },
    {
      "bufferView": 1,
      "byteOffset": 24804,
      "componentType": 5125,
      "count": 480,
      "type": "SCALAR"
    },
    {
      "bufferView": 3,
      "byteOffset": 140592,
      "componentType": 5126,
      "count": 1049,
      "max": [
        0.35740482807159424,
        1.5852861404418945,
        0.34272515773773193
      ],
      "min": [
        -2.375088691711426,
        0.024064868688583374,
        -0.3427247703075409
      ],
      "type": "VEC3"
    },
    {
      "bufferView": 3,
      "byteOffset": 153180,
      "componentType": 5126,
      "count": 1049,
      "max": [
        1.0,
        1.0,
        1.0
      ],
      "min": [
        -1.0,
        -1.0,
        -1.0
      ],
      "type": "VEC3"
    },
    {
      "bufferView": 2,
      "byteOffset": 46864,
      "componentType": 5126,
      "count": 1049,
      "max": [
        1.0,
        1.0
      ],
      "min": [
        -8.940696716308594e-08,
        0.0
      ],
      "type": "VEC2"
    },
    {
      "bufferView": 1,
      "byteOffset": 26724,
      "componentType": 5125,
      "count": 1164,
      "type": "SCALAR"
    },
    {
      "bufferView": 3,
      "byteOffset": 165768,
      "componentType": 5126,
      "count": 159,
      "max": [
        2.066986083984375,
        1.6683688163757324,
        0.08572274446487427
      ],
      "min": [
        -1.8194361925125122,
        1.5512512922286987,
        -0.08572255820035934
      ],
      "type": "VEC3"
    },
    {
      "bufferView": 3,
      "byteOffset": 167676,
      "componentType": 5126,
      "count": 159,
      "max": [
        1.0,
        0.8660245537757874,
        1.0
      ],
      "min": [
        -1.0,
        -0.8660270571708679,
        -1.0
      ],
      "type": "VEC3"
    },
    {
      "bufferView": 2,
      "byteOffset": 55256,
      "componentType": 5126,
      "count": 159,
      "max": [
        1.0,
        1.0
      ],
      "min": [
        -8.940696716308594e-08,
        0.01000000536441803
      ],
      "type": "VEC2"
    },
    {
      "bufferView": 1,
      "byteOffset": 31380,
      "componentType": 5125,
      "count": 180,
      "type": "SCALAR"
    },
    {
      "bufferView": 3,
      "byteOffset": 169584,
      "componentType": 5126,
      "count": 212,
      "max": [
        2.389461040496826,
        1.5001883506774902,
        0.20404286682605743
      ],
      "min": [
        -0.4309784173965454,
        0.8130818605422974,
        -0.20404286682605743
      ],
      "type": "VEC3"
    },
    {
      "bufferView": 3,
      "byteOffset": 172128,
      "componentType": 5126,
      "count": 212,
      "max": [
        1.0,
        0.9892486333847046,
        1.0
      ],
      "min": [
        -1.0,
        -0.8660256862640381,
        -1.0
      ],
      "type": "VEC3"
    },
    {
      "bufferView": 2,
      "byteOffset": 56528,
      "componentType": 5126,
      "count": 212,
      "max": [
        1.0,
        1.0
      ],
      "min": [
        -8.940696716308594e-08,
        0.0
      ],
      "type": "VEC2"
    },
    {
      "bufferView": 1,
      "byteOffset": 32100,
      "componentType": 5125,
      "count": 300,
      "type": "SCALAR"
    },
    {
      "bufferView": 3,
      "byteOffset": 174672,
      "componentType": 5126,
      "count": 891,
      "max": [
        -0.9932069182395935,
        1.1785225868225098,
        0.16910642385482788
      ],
      "min": [
        -1.5094585418701172,
        0.5416169166564941,
        -0.15732541680335999
      ],
      "type": "VEC3"
    },
    {
      "bufferView": 3,
      "byteOffset": 185364,
      "componentType": 5126,
      "count": 891,
      "max": [
        1.0,
        0.8660256266593933,
        1.0
      ],
      "min": [
        -1.0,
        -0.8660258054733276,
        -1.0
      ],
      "type": "VEC3"
    },
    {
      "bufferView": 2,
      "byteOffset": 58224,
      "componentType": 5126,
      "count": 891,
      "max": [
        1.0,
        1.0
      ],
      "min": [
        -8.940696716308594e-08,
        0.5
      ],
      "type": "VEC2"
    },
    {
      "bufferView": 1,
      "byteOffset": 33300,
      "componentType": 5125,
      "count": 1116,
      "type": "SCALAR"
    },
    {
      "bufferView": 3,
      "byteOffset": 196056,
      "componentType": 5126,
      "count": 130,
      "max": [
        -1.4244916439056396,
        1.1101155281066895,
        0.10938610136508942
      ],
      "min": [
        -1.509529948234558,
        0.6105760335922241,
        -0.09760510921478271
      ],
      "type": "VEC3"
    },
    {
      "bufferView": 3,
      "byteOffset": 197616,
      "componentType": 5126,
      "count": 130,
      "max": [
        4.00846573711533e-07,
        0.8660258054733276,
        1.0
      ],
      "min": [
        -1.0,
        -0.8660264015197754,
        -1.0
      ],
      "type": "VEC3"
    },
    {
      "bufferView": 2,
      "byteOffset": 65352,
      "componentType": 5126,
      "count": 130,
      "max": [
        1.0,
        0.5
      ],
      "min": [
        -8.940696716308594e-08,
        0.01000000536441803
      ],
      "type": "VEC2"
    },
    {
      "bufferView": 1,
      "byteOffset": 37764,
      "componentType": 5125,
      "count": 144,
      "type": "SCALAR"
    },
    {
      "bufferView": 3,
      "byteOffset": 199176,
      "componentType": 5126,
      "count": 348,
      "max": [
        -0.749119758605957,
        1.1695549488067627,
        0.16127735376358032
      ],
      "min": [
        -1.0550165176391602,
        0.5506570339202881,
        -0.14949654042720795
      ],
      "type": "VEC3"
    },
    {
      "bufferView": 3,
      "byteOffset": 203352,
      "componentType": 5126,
      "count": 348,
      "max": [
        1.0,
        0.8638235926628113,
        0.9974573850631714
      ],
      "min": [
        0.0712653174996376,
        -0.8638235926628113,
        -0.9974574446678162
      ],
      "type": "VEC3"
    },
    {
      "bufferView": 2,
      "byteOffset": 66392,
      "componentType": 5126,
      "count": 348,
      "max": [
        1.0,
        1.0
      ],
      "min": [
        -8.940696716308594e-08,
        0.01000000536441803
      ],
      "type": "VEC2"
    },
    {
      "bufferView": 1,
      "byteOffset": 38340,
      "componentType": 5125,
      "count": 360,
      "type": "SCALAR"
    },
    {
      "bufferView": 3,
      "byteOffset": 207528,
      "componentType": 5126,
      "count": 96,
      "max": [
        -1.0768944025039673,
        1.3829810619354248,
        0.03997974097728729
      ],
      "min": [
        -2.0047502517700195,
        1.1612350940704346,
        -0.28696441650390625
      ],
      "type": "VEC3"
    },
    {
      "bufferView": 3,
      "byteOffset": 208680,
      "componentType": 5126,
      "count": 96,
      "max": [
        1.0,
        0.8660265803337097,
        1.0
      ],
      "min": [
        -1.0,
        -0.8660260438919067,
        -1.0
      ],
      "type": "VEC3"
    },
    {
      "bufferView": 2,
      "byteOffset": 69176,
      "componentType": 5126,
      "count": 96,
      "max": [
        1.0,
        1.0
      ],
      "min": [
        -8.940696716308594e-08,
        0.01000000536441803
      ],
      "type": "VEC2"
    },
    {
      "bufferView": 1,
      "byteOffset": 39780,
      "componentType": 5125,
      "count": 108,
      "type": "SCALAR"
    },
    {
      "bufferView": 5,
      "componentType": 5126,
      "count": 11,
      "max": [
        1.0,
        1.0,
        0.9796408414840698,
        0.0,
        0.9954309463500977,
        1.0,
        0.4587666690349579,
        0.0,
        1.0000005960464478,
        0.0,
        1.0,
        0.0,
        1.8604053258895874,
        2.006777048110962,
        1.3878309726715088,
        1.0
      ],
      "min": [
        3.921210023349886e-08,
        -0.4587666988372803,
        -7.388463529878209e-08,
        0.0,
        -0.9726969003677368,
        -0.9796409606933594,
        -0.2320796102285385,
        0.0,
        -1.0,
        -2.0340181094979926e-07,
        -1.0,
        0.0,
        -0.6345929503440857,
        -1.6737332344055176,
        -1.7815300168422255e-07,
        1.0
      ],
      "type": "MAT4"
    },
    {
      "bufferView": 0,
      "componentType": 5123,
      "count": 2465,
      "type": "VEC4"
    },
    {
      "bufferView": 4,
      "componentType": 5126,
      "count": 2465,
      "max": [
        1.0,
        0.0,
        0.0,
        0.0
      ],
      "min": [
        1.0,
        0.0,
        0.0,
        0.0
      ],
      "type": "VEC4"
    },
    {
      "bufferView": 0,
      "byteOffset": 19720,
      "componentType": 5123,
      "count": 2575,
      "type": "VEC4"
    },
    {
      "bufferView": 4,
      "byteOffset": 39440,
      "componentType": 5126,
      "count": 2575,
      "max": [
        1.0,
        0.0,
        0.0,
        0.0
      ],
      "min": [
        1.0,
        0.0,
        0.0,
        0.0
      ],
      "type": "VEC4"
    },
    {
      "bufferView": 0,
      "byteOffset": 40320,
      "componentType": 5123,
      "count": 423,
      "type": "VEC4"
    },
    {
      "bufferView": 4,
      "byteOffset": 80640,
      "componentType": 5126,
      "count": 423,
      "max": [
        1.0,
        0.0,
        0.0,
        0.0
      ],
      "min": [
        1.0,
        0.0,
        0.0,
        0.0
      ],
      "type": "VEC4"
    },
    {
      "bufferView": 0,
      "byteOffset": 43704,
      "componentType": 5123,
      "count": 395,
      "type": "VEC4"
    },
    {
      "bufferView": 4,
      "byteOffset": 87408,
      "componentType": 5126,
      "count": 395,
      "max": [
        1.0,
        0.0,
        0.0,
        0.0
      ],
      "min": [
        1.0,
        0.0,
        0.0,
        0.0
      ],
      "type": "VEC4"
    },
    {
      "bufferView": 0,
      "byteOffset": 46864,
      "componentType": 5123,
      "count": 1049,
      "type": "VEC4"
    },
    {
      "bufferView": 4,
      "byteOffset": 93728,
      "componentType": 5126,
      "count": 1049,
      "max": [
        1.0,
        0.0,
        0.0,
        0.0
      ],
      "min": [
        1.0,
        0.0,
        0.0,
        0.0
      ],
      "type": "VEC4"
    },
    {
      "bufferView": 0,
      "byteOffset": 55256,
      "componentType": 5123,
      "count": 159,
      "type": "VEC4"
    },
    {
      "bufferView": 4,
      "byteOffset": 110512,
      "componentType": 5126,
      "count": 159,
      "max": [
        1.0,
        0.0,
        0.0,
        0.0
      ],
      "min": [
        1.0,
        0.0,
        0.0,
        0.0
      ],
      "type": "VEC4"
    },
    {
      "bufferView": 0,
      "byteOffset": 56528,
      "componentType": 5123,
      "count": 212,
      "type": "VEC4"
    },
    {
      "bufferView": 4,
      "byteOffset": 113056,
      "componentType": 5126,
      "count": 212,
      "max": [
        1.0,
        0.0,
        0.0,
        0.0
      ],
      "min": [
        1.0,
        0.0,
        0.0,
        0.0
      ],
      "type": "VEC4"
    },
    {
      "bufferView": 0,
      "byteOffset": 58224,
      "componentType": 5123,
      "count": 891,
      "type": "VEC4"
    },
    {
      "bufferView": 4,
      "byteOffset": 116448,
      "componentType": 5126,
      "count": 891,
      "max": [
        1.0,
        0.0,
        0.0,
        0.0
      ],
      "min": [
        1.0,
        0.0,
        0.0,
        0.0
      ],
      "type": "VEC4"
    },
    {
      "bufferView": 0,
      "byteOffset": 65352,
      "componentType": 5123,
      "count": 130,
      "type": "VEC4"
    },
    {
      "bufferView": 4,
      "byteOffset": 130704,
      "componentType": 5126,
      "count": 130,
      "max": [
        1.0,
        0.0,
        0.0,
        0.0
      ],
      "min": [
        1.0,
        0.0,
        0.0,
        0.0
      ],
      "type": "VEC4"
    },
    {
      "bufferView": 0,
      "byteOffset": 66392,
      "componentType": 5123,
      "count": 348,
      "type": "VEC4"
    },
    {
      "bufferView": 4,
      "byteOffset": 132784,
      "componentType": 5126,
      "count": 348,
      "max": [
        1.0,
        0.0,
        0.0,
        0.0
      ],
      "min": [
        1.0,
        0.0,
        0.0,
        0.0
      ],
      "type": "VEC4"
    },
    {
      "bufferView": 0,
      "byteOffset": 69176,
      "componentType": 5123,
      "count": 96,
      "type": "VEC4"
    },
    {
      "bufferView": 4,
      "byteOffset": 138352,
      "componentType": 5126,
      "count": 96,
      "max": [
        1.0,
        0.0,
        0.0,
        0.0
      ],
      "min": [
        1.0,
        0.0,
        0.0,
        0.0
      ],
      "type": "VEC4"
    }
  ],
  "asset": {
    "extras": {
      "author": "TastyTony (https://sketchfab.com/TastyTony)",
      "license": "CC-BY-4.0 (http://creativecommons.org/licenses/by/4.0/)",
      "source": "https://sketchfab.com/3d-models/low-poly-browning-bdm-7b016d276b5247daac437e7f25c6cc49",
      "title": "Low-Poly Browning BDM"
    },
    "generator": "Sketchfab-12.67.0",
    "version": "2.0"
  },
  "bufferViews": [
    {
      "buffer": 0,
      "byteLength": 69944,
      "byteStride": 8,
      "name": "shortBufferViews",
      "target": 34962
    },
    {
      "buffer": 0,
      "byteLength": 40212,
      "byteOffset": 69944,
      "name": "floatBufferViews",
      "target": 34963
    },
    {
      "buffer": 0,
      "byteLength": 69944,
      "byteOffset": 110156,
      "byteStride": 8,
      "name": "floatBufferViews",
      "target": 34962
    },
    {
      "buffer": 0,
      "byteLength": 209832,
      "byteOffset": 180100,
      "byteStride": 12,
      "name": "floatBufferViews",
      "target": 34962
    },
    {
      "buffer": 0,
      "byteLength": 139888,
      "byteOffset": 389932,
      "byteStride": 16,
      "name": "floatBufferViews",
      "target": 34962
    },
    {
      "buffer": 0,
      "byteLength": 704,
      "byteOffset": 529820,
      "name": "floatBufferViews"
    }
  ],
  "buffers": [
    {
      "byteLength": 530524,
      "uri": "scene.bin"
    }
  ],
  "materials": [
    {
      "doubleSided": true,
      "name": "Material.003",
      "pbrMetallicRoughness": {
        "baseColorFactor": [
          0.0149052,
          0.0149052,
          0.0149052,
          1.0
        ],
        "metallicFactor": 0.0
      }
    },
    {
      "doubleSided": true,
      "name": "Material.006",
      "pbrMetallicRoughness": {
        "baseColorFactor": [
          0.0133426,
          0.0133426,
          0.0133426,
          1.0
        ],
        "metallicFactor": 0.0
      }
    },
    {
      "doubleSided": true,
      "name": "Material.004",
      "pbrMetallicRoughness": {
        "baseColorFactor": [
          0.00868029,
          0.00868029,
          0.00868029,
          1.0
        ],
        "metallicFactor": 0.0
      }
    },
    {
      "doubleSided": true,
      "name": "Material.007",
      "pbrMetallicRoughness": {
        "baseColorFactor": [
          0.0181783,
          0.0181783,
          0.0181783,
          1.0
        ],
        "metallicFactor": 0.0
      }
    },
    {
      "doubleSided": true,
      "name": "Material.005",
      "pbrMetallicRoughness": {
        "baseColorFactor": [
          0.019116564007654508,
          0.019116564007654508,
          0.019116564007654508,
          1.0
        ],
        "metallicFactor": 0.0
      }
    },
    {
      "doubleSided": true,
      "name": "Material.008",
      "pbrMetallicRoughness": {
        "baseColorFactor": [
          0.8,
          0.8,
          0.8,
          1.0
        ],
        "metallicFactor": 0.0,
        "roughnessFactor": 0.5
      }
    },
    {
      "doubleSided": true,
      "name": "Material.009",
      "pbrMetallicRoughness": {
        "baseColorFactor": [
          0.0201336,
          0.0196665,
          0.0194513,
          1.0
        ],
        "metallicFactor": 0.0
      }
    },
    {
      "doubleSided": true,
      "name": "Material",
      "pbrMetallicRoughness": {
        "baseColorFactor": [
          0.195988,
          0.123689,
          0.068772,
          1.0
        ],
        "metallicFactor": 0.0,
        "roughnessFactor": 0.5
      }
    },
    {
      "doubleSided": true,
      "name": "Material.002",
      "pbrMetallicRoughness": {
        "baseColorFactor": [
          0.12371,
          0.102258,
          0.0826972,
          1.0
        ],
        "metallicFactor": 0.0,
        "roughnessFactor": 0.5
      }
    },
    {
      "doubleSided": true,
      "name": "Material.001",
      "pbrMetallicRoughness": {
        "baseColorFactor": [
          0.128239,
          0.078923,
          0.0605823,
          1.0
        ],
        "metallicFactor": 0.0,
        "roughnessFactor": 0.5
      }
    },
    {
      "doubleSided": true,
      "name": "Material.010",
      "pbrMetallicRoughness": {
        "baseColorFactor": [
          0.0173876,
          0.0173876,
          0.0173876,
          1.0
        ],
        "metallicFactor": 0.0
      }
    }
  ],
  "meshes": [
    {
      "name": "Object_0",
      "primitives": [
        {
          "attributes": {
            "JOINTS_0": 45,
            "NORMAL": 1,
            "POSITION": 0,
            "TEXCOORD_0": 2,
            "WEIGHTS_0": 46
          },
          "indices": 3,
          "material": 0,
          "mode": 4
        }
      ]
    },
    {
      "name": "Object_1",
      "primitives": [
        {
          "attributes": {
            "JOINTS_0": 47,
            "NORMAL": 5,
            "POSITION": 4,
            "TEXCOORD_0": 6,
            "WEIGHTS_0": 48
          },
          "indices": 7,
          "material": 1,
          "mode": 4
        }
      ]
    },
    {
      "name": "Object_2",
      "primitives": [
        {
          "attributes": {
            "JOINTS_0": 49,
            "NORMAL": 9,
            "POSITION": 8,
            "TEXCOORD_0": 10,
            "WEIGHTS_0": 50
          },
          "indices": 11,
          "material": 2,
          "mode": 4
        }
      ]
    },
    {
      "name": "Object_3",
      "primitives": [
        {
          "attributes": {
            "JOINTS_0": 51,
            "NORMAL": 13,
            "POSITION": 12,
            "TEXCOORD_0": 14,
            "WEIGHTS_0": 52
          },
          "indices": 15,
          "material": 3,
          "mode": 4
        }
      ]
    },
    {
      "name": "Object_4",
      "primitives": [
        {
          "attributes": {
            "JOINTS_0": 53,
            "NORMAL": 17,
            "POSITION": 16,
            "TEXCOORD_0": 18,
            "WEIGHTS_0": 54
          },
          "indices": 19,
          "material": 4,
          "mode": 4
        }
      ]
    },
    {
      "name": "Object_5",
      "primitives": [
        {
          "attributes": {
            "JOINTS_0": 55,
            "NORMAL": 21,
            "POSITION": 20,
            "TEXCOORD_0": 22,
            "WEIGHTS_0": 56
          },
          "indices": 23,
          "material": 5,
          "mode": 4
        }
      ]
    },
    {
      "name": "Object_6",
      "primitives": [
        {
          "attributes": {
            "JOINTS_0": 57,
            "NORMAL": 25,
            "POSITION": 24,
            "TEXCOORD_0": 26,
            "WEIGHTS_0": 58
          },
          "indices": 27,
          "material": 6,
          "mode": 4
        }
      ]
    },
    {
      "name": "Object_7",
      "primitives": [
        {
          "attributes": {
            "JOINTS_0": 59,
            "NORMAL": 29,
            "POSITION": 28,
            "TEXCOORD_0": 30,
            "WEIGHTS_0": 60
          },
          "indices": 31,
          "material": 7,
          "mode": 4
        }
      ]
    },
    {
      "name": "Object_8",
      "primitives": [
        {
          "attributes": {
            "JOINTS_0": 61,
            "NORMAL": 33,
            "POSITION": 32,
            "TEXCOORD_0": 34,
            "WEIGHTS_0": 62
          },
          "indices": 35,
          "material": 8,
          "mode": 4
        }
      ]
    },
    {
      "name": "Object_9",
      "primitives": [
        {
          "attributes": {
            "JOINTS_0": 63,
            "NORMAL": 37,
            "POSITION": 36,
            "TEXCOORD_0": 38,
            "WEIGHTS_0": 64
          },
          "indices": 39,
          "material": 9,
          "mode": 4
        }
      ]
    },
    {
      "name": "Object_10",
      "primitives": [
        {
          "attributes": {
            "JOINTS_0": 65,
            "NORMAL": 41,
            "POSITION": 40,
            "TEXCOORD_0": 42,
            "WEIGHTS_0": 66
          },
          "indices": 43,
          "material": 10,
          "mode": 4
        }
      ]
    }
  ],
  "nodes": [
    {
      "children": [
        1
      ],
      "matrix": [
        1.0,
        0.0,
        0.0,
        0.0,
        0.0,
        2.220446049250313e-16,
        -1.0,
        0.0,
        0.0,
        1.0,
        2.220446049250313e-16,
        0.0,
        0.0,
        0.0,
        0.0,
        1.0
      ],
      "name": "Sketchfab_model"
    },
    {
      "children": [
        2
      ],
      "name": "root"
    },
    {
      "children": [
        3
      ],
      "matrix": [
        1.0,
        0.0,
        0.0,
        0.0,
        0.0,
        2.220446049250313e-16,
        1.0,
        0.0,
        0.0,
        -1.0,
        2.220446049250313e-16,
        0.0,
        0.0,
        0.0,
        0.0,
        1.0
      ],
      "name": "GLTF_SceneRootNode"
    },
    {
      "children": [
        4
      ],
      "matrix": [
        0.9726968894150112,
        -0.23207921346463017,
        -0.0,
        0.0,
        0.23207921346463017,
        0.9726968894150112,
        0.0,
        0.0,
        0.0,
        -0.0,
        1.0,
        0.0,
        -2.0455148220062256,
        -0.9183598756790161,
        0.0,
        1.0
      ],
      "name": "Armature_13"
    },
    {
      "children": [
        5,
        7,
        8,
        9,
        10,
        11,
        12,
        13,
        14,
        15,
        16,
        17,
        6
      ],
      "name": "GLTF_created_0"
    },
    {
      "children": [
        18
      ],
      "name": "GLTF_created_0_rootJoint"
    },
    {
      "name": "Cube_12"
    },
    {
      "mesh": 0,
      "name": "Object_7",
      "skin": 0
    },
    {
      "mesh": 1,
      "name": "Object_8",
      "skin": 0
    },
    {
      "mesh": 2,
      "name": "Object_9",
      "skin": 0
    },
    {
      "mesh": 3,
      "name": "Object_10",
      "skin": 0
    },
    {
      "mesh": 4,
      "name": "Object_11",
      "skin": 0
    },
    {
      "mesh": 5,
      "name": "Object_12",
      "skin": 0
    },
    {
      "mesh": 6,
      "name": "Object_13",
      "skin": 0
    },
    {
      "mesh": 7,
      "name": "Object_14",
      "skin": 0
    },
    {
      "mesh": 8,
      "name": "Object_15",
      "skin": 0
    },
    {
      "mesh": 9,
      "name": "Object_16",
      "skin": 0
    },
    {
      "mesh": 10,
      "name": "Object_17",
      "skin": 0
    },
    {
      "children": [
        19,
        20,
        21,
        22,
        23,
        24,
        27
      ],
      "name": "body_11",
      "rotation": [
        -5.054561214024034e-08,
        0.0,
        0.0,
        1.0
      ],
      "translation": [
        -0.08387160301208496,
        -0.09262055158615112,
        0.0
      ]
    },
    {
      "name": "slide_2",
      "rotation": [
        0.07239925861358643,
        0.09170547872781754,
        -0.6154012680053711,
        0.7795060873031616
      ],
      "translation": [
        -0.1504262089729309,
        2.292393207550049,
        7.425259695992281e-08
      ]
    },
    {
      "name": "hammer_3",
      "rotation": [
        -0.2460557371377945,
        0.6629151105880737,
        0.24605576694011688,
        0.6629152894020081
      ],
      "scale": [
        1.0,
        1.0000001192092896,
        1.000000238418579
      ],
      "translation": [
        -0.28336742520332336,
        1.8235278129577637,
        1.6450499629172555e-07
      ]
    },
    {
      "name": "trigger_4",
      "rotation": [
        -0.6903443932533264,
        -0.15305063128471375,
        -0.6903446316719055,
        0.15305078029632568
      ],
      "scale": [
        0.9999994039535522,
        1.0000001192092896,
        1.000000238418579
      ],
      "translation": [
        1.4327720403671265,
        2.169673442840576,
        1.7936943663698912e-07
      ]
    },
    {
      "name": "sliderelease_5",
      "rotation": [
        -0.01365156564861536,
        0.11603962630033493,
        0.11603964120149612,
        0.9863484501838684
      ],
      "translation": [
        0.701825737953186,
        1.9646483659744263,
        -0.28271162509918213
      ]
    },
    {
      "name": "safety_6",
      "rotation": [
        0.6564520597457886,
        0.7543677687644958,
        2.6291296251201857e-08,
        -5.6953187055341914e-08
      ],
      "scale": [
        0.9999999403953552,
        0.9999997615814209,
        1.0
      ],
      "translation": [
        -0.21479487419128418,
        1.8119179010391235,
        1.503405542280234e-07
      ]
    },
    {
      "children": [
        25,
        26
      ],
      "name": "mag_9",
      "rotation": [
        3.359896183496858e-08,
        0.0,
        0.0,
        1.0
      ],
      "translation": [
        0.7637553811073303,
        0.5001376867294312,
        4.149800503228107e-08
      ]
    },
    {
      "name": "bullet_7",
      "rotation": [
        0.0723993107676506,
        0.09170560538768768,
        -0.615401029586792,
        0.779506266117096
      ],
      "scale": [
        1.0,
        1.0000001192092896,
        1.0000001192092896
      ],
      "translation": [
        -0.45802468061447144,
        1.6018235683441162,
        2.5269152104101522e-08
      ]
    },
    {
      "name": "bullets_8",
      "rotation": [
        0.07239937037229538,
        0.09170567989349365,
        -0.615401029586792,
        0.779506266117096
      ],
      "translation": [
        -0.46209716796875,
        1.3310203552246094,
        4.998578972958967e-08
      ]
    },
    {
      "name": "barrel_10",
      "rotation": [
        0.07239934056997299,
        0.09170551598072052,
        -0.6154012680053711,
        0.7795060873031616
      ],
      "scale": [
        1.0,
        1.0,
        0.9999999403953552
      ],
      "translation": [
        1.3691813945770264,
        2.708927869796753,
        2.2476829997231107e-07
      ]
    }
  ],
  "scene": 0,
  "scenes": [
    {
      "name": "Sketchfab_Scene",
      "nodes": [
        0
      ]
    }
  ],
  "skins": [
    {
      "inverseBindMatrices": 44,
      "joints": [
        5,
        18,
        19,
        20,
        21,
        22,
        23,
        24,
        25,
        26,
        27
      ],
      "skeleton": 5
    }
  ]
}
